<svg xmlns="http://www.w3.org/2000/svg" width="760" height="520" viewBox="0 0 760 520">
<rect width="100%" height="100%" fill="white"/>
<text x="24" y="34" font-family="Arial" font-size="19" font-weight="700">Cross-resistance network</text>
<line x1="380.0" y1="110.0" x2="512.9113520195651" y2="174.0067336840153" stroke="#3b5bdb" stroke-width="2.53" stroke-opacity="0.58"/>
<line x1="380.0" y1="110.0" x2="545.73774507091" y2="317.82855877257344" stroke="#3b5bdb" stroke-width="3.27" stroke-opacity="0.58"/>
<line x1="380.0" y1="110.0" x2="453.7602356499849" y2="433.1647075434113" stroke="#3b5bdb" stroke-width="2.29" stroke-opacity="0.58"/>
<line x1="380.0" y1="110.0" x2="214.26225492908998" y2="317.82855877257344" stroke="#3b5bdb" stroke-width="2.75" stroke-opacity="0.58"/>
<line x1="545.73774507091" y1="317.82855877257344" x2="453.7602356499849" y2="433.1647075434113" stroke="#3b5bdb" stroke-width="2.47" stroke-opacity="0.58"/>
<line x1="545.73774507091" y1="317.82855877257344" x2="306.2397643500151" y2="433.1647075434113" stroke="#3b5bdb" stroke-width="2.26" stroke-opacity="0.58"/>
<line x1="453.7602356499849" y1="433.1647075434113" x2="306.2397643500151" y2="433.1647075434113" stroke="#3b5bdb" stroke-width="6.53" stroke-opacity="0.58"/>
<circle cx="380.0" cy="110.0" r="30" fill="#f8f9fa" stroke="#222"/>
<text x="380.0" y="114.0" text-anchor="middle" font-family="Arial" font-size="11">Oxacillin</text>
<circle cx="512.9113520195651" cy="174.0067336840153" r="30" fill="#f8f9fa" stroke="#222"/>
<text x="512.9113520195651" y="178.0067336840153" text-anchor="middle" font-family="Arial" font-size="11">Penicillin</text>
<circle cx="545.73774507091" cy="317.82855877257344" r="30" fill="#f8f9fa" stroke="#222"/>
<text x="545.73774507091" y="321.82855877257344" text-anchor="middle" font-family="Arial" font-size="11">Ciprofloxacin</text>
<circle cx="453.7602356499849" cy="433.1647075434113" r="30" fill="#f8f9fa" stroke="#222"/>
<text x="453.7602356499849" y="437.1647075434113" text-anchor="middle" font-family="Arial" font-size="11">Erythromycin</text>
<circle cx="306.2397643500151" cy="433.1647075434113" r="30" fill="#f8f9fa" stroke="#222"/>
<text x="306.2397643500151" y="437.1647075434113" text-anchor="middle" font-family="Arial" font-size="11">Clindamycin</text>
<circle cx="214.26225492908998" cy="317.82855877257344" r="30" fill="#f8f9fa" stroke="#222"/>
<text x="214.26225492908998" y="321.82855877257344" text-anchor="middle" font-family="Arial" font-size="11">Gentamicin</text>
<circle cx="247.08864798043493" cy="174.00673368401533" r="30" fill="#f8f9fa" stroke="#222"/>
<text x="247.08864798043493" y="178.00673368401533" text-anchor="middle" font-family="Arial" font-size="11">Fusidic acid</text>
</svg>