<svg xmlns="http://www.w3.org/2000/svg" width="536" height="524" viewBox="0 0 536 524">
<rect width="100%" height="100%" fill="white"/>
<text x="132" y="32" font-family="Arial" font-size="18" font-weight="700">Co-resistance phi matrix: A-2018</text>
<text x="132" y="56" font-family="Arial" font-size="12" fill="#555">blue = positive co-resistance, red = inverse association</text>
<text x="164.0" y="92" font-family="Arial" font-size="11" text-anchor="end" transform="rotate(-45 164.0 92)">Cipro</text>
<text x="124" y="140.0" font-family="Arial" font-size="12" text-anchor="end">Cipro</text>
<text x="228.0" y="92" font-family="Arial" font-size="11" text-anchor="end" transform="rotate(-45 228.0 92)">Norflox</text>
<text x="124" y="204.0" font-family="Arial" font-size="12" text-anchor="end">Norflox</text>
<text x="292.0" y="92" font-family="Arial" font-size="11" text-anchor="end" transform="rotate(-45 292.0 92)">Amox-Clav</text>
<text x="124" y="268.0" font-family="Arial" font-size="12" text-anchor="end">Amox-Clav</text>
<text x="356.0" y="92" font-family="Arial" font-size="11" text-anchor="end" transform="rotate(-45 356.0 92)">CRO</text>
<text x="124" y="332.0" font-family="Arial" font-size="12" text-anchor="end">CRO</text>
<text x="420.0" y="92" font-family="Arial" font-size="11" text-anchor="end" transform="rotate(-45 420.0 92)">CAZ</text>
<text x="124" y="396.0" font-family="Arial" font-size="12" text-anchor="end">CAZ</text>
<text x="484.0" y="92" font-family="Arial" font-size="11" text-anchor="end" transform="rotate(-45 484.0 92)">FEP</text>
<text x="124" y="460.0" font-family="Arial" font-size="12" text-anchor="end">FEP</text>
<rect x="132" y="104" width="64" height="64" fill="#e8e8e8" stroke="#fff"/>
<text x="164.0" y="140.0" font-family="Arial" font-size="13" text-anchor="middle">1.00</text>
<rect x="196" y="104" width="64" height="64" fill="rgb(125,125,255)" stroke="#fff"/>
<text x="228.0" y="140.0" font-family="Arial" font-size="13" text-anchor="middle">1.00</text>
<rect x="260" y="104" width="64" height="64" fill="rgb(218,218,255)" stroke="#fff"/>
<text x="292.0" y="140.0" font-family="Arial" font-size="13" text-anchor="middle">0.28</text>
<rect x="324" y="104" width="64" height="64" fill="rgb(182,182,255)" stroke="#fff"/>
<text x="356.0" y="140.0" font-family="Arial" font-size="13" text-anchor="middle">0.56</text>
<rect x="388" y="104" width="64" height="64" fill="rgb(200,200,255)" stroke="#fff"/>
<text x="420.0" y="140.0" font-family="Arial" font-size="13" text-anchor="middle">0.42</text>
<rect x="452" y="104" width="64" height="64" fill="rgb(202,202,255)" stroke="#fff"/>
<text x="484.0" y="140.0" font-family="Arial" font-size="13" text-anchor="middle">0.41</text>
<rect x="132" y="168" width="64" height="64" fill="rgb(125,125,255)" stroke="#fff"/>
<text x="164.0" y="204.0" font-family="Arial" font-size="13" text-anchor="middle">1.00</text>
<rect x="196" y="168" width="64" height="64" fill="#e8e8e8" stroke="#fff"/>
<text x="228.0" y="204.0" font-family="Arial" font-size="13" text-anchor="middle">1.00</text>
<rect x="260" y="168" width="64" height="64" fill="rgb(217,217,255)" stroke="#fff"/>
<text x="292.0" y="204.0" font-family="Arial" font-size="13" text-anchor="middle">0.29</text>
<rect x="324" y="168" width="64" height="64" fill="rgb(187,187,255)" stroke="#fff"/>
<text x="356.0" y="204.0" font-family="Arial" font-size="13" text-anchor="middle">0.52</text>
<rect x="388" y="168" width="64" height="64" fill="rgb(207,207,255)" stroke="#fff"/>
<text x="420.0" y="204.0" font-family="Arial" font-size="13" text-anchor="middle">0.37</text>
<rect x="452" y="168" width="64" height="64" fill="rgb(209,209,255)" stroke="#fff"/>
<text x="484.0" y="204.0" font-family="Arial" font-size="13" text-anchor="middle">0.35</text>
<rect x="132" y="232" width="64" height="64" fill="rgb(218,218,255)" stroke="#fff"/>
<text x="164.0" y="268.0" font-family="Arial" font-size="13" text-anchor="middle">0.28</text>
<rect x="196" y="232" width="64" height="64" fill="rgb(217,217,255)" stroke="#fff"/>
<text x="228.0" y="268.0" font-family="Arial" font-size="13" text-anchor="middle">0.29</text>
<rect x="260" y="232" width="64" height="64" fill="#e8e8e8" stroke="#fff"/>
<text x="292.0" y="268.0" font-family="Arial" font-size="13" text-anchor="middle">1.00</text>
<rect x="324" y="232" width="64" height="64" fill="rgb(212,212,255)" stroke="#fff"/>
<text x="356.0" y="268.0" font-family="Arial" font-size="13" text-anchor="middle">0.32</text>
<rect x="388" y="232" width="64" height="64" fill="rgb(208,208,255)" stroke="#fff"/>
<text x="420.0" y="268.0" font-family="Arial" font-size="13" text-anchor="middle">0.36</text>
<rect x="452" y="232" width="64" height="64" fill="rgb(213,213,255)" stroke="#fff"/>
<text x="484.0" y="268.0" font-family="Arial" font-size="13" text-anchor="middle">0.32</text>
<rect x="132" y="296" width="64" height="64" fill="rgb(182,182,255)" stroke="#fff"/>
<text x="164.0" y="332.0" font-family="Arial" font-size="13" text-anchor="middle">0.56</text>
<rect x="196" y="296" width="64" height="64" fill="rgb(187,187,255)" stroke="#fff"/>
<text x="228.0" y="332.0" font-family="Arial" font-size="13" text-anchor="middle">0.52</text>
<rect x="260" y="296" width="64" height="64" fill="rgb(212,212,255)" stroke="#fff"/>
<text x="292.0" y="332.0" font-family="Arial" font-size="13" text-anchor="middle">0.32</text>
<rect x="324" y="296" width="64" height="64" fill="#e8e8e8" stroke="#fff"/>
<text x="356.0" y="332.0" font-family="Arial" font-size="13" text-anchor="middle">1.00</text>
<rect x="388" y="296" width="64" height="64" fill="rgb(141,141,255)" stroke="#fff"/>
<text x="420.0" y="332.0" font-family="Arial" font-size="13" text-anchor="middle">0.87</text>
<rect x="452" y="296" width="64" height="64" fill="rgb(157,157,255)" stroke="#fff"/>
<text x="484.0" y="332.0" font-family="Arial" font-size="13" text-anchor="middle">0.75</text>
<rect x="132" y="360" width="64" height="64" fill="rgb(200,200,255)" stroke="#fff"/>
<text x="164.0" y="396.0" font-family="Arial" font-size="13" text-anchor="middle">0.42</text>
<rect x="196" y="360" width="64" height="64" fill="rgb(207,207,255)" stroke="#fff"/>
<text x="228.0" y="396.0" font-family="Arial" font-size="13" text-anchor="middle">0.37</text>
<rect x="260" y="360" width="64" height="64" fill="rgb(208,208,255)" stroke="#fff"/>
<text x="292.0" y="396.0" font-family="Arial" font-size="13" text-anchor="middle">0.36</text>
<rect x="324" y="360" width="64" height="64" fill="rgb(141,141,255)" stroke="#fff"/>
<text x="356.0" y="396.0" font-family="Arial" font-size="13" text-anchor="middle">0.87</text>
<rect x="388" y="360" width="64" height="64" fill="#e8e8e8" stroke="#fff"/>
<text x="420.0" y="396.0" font-family="Arial" font-size="13" text-anchor="middle">1.00</text>
<rect x="452" y="360" width="64" height="64" fill="rgb(142,142,255)" stroke="#fff"/>
<text x="484.0" y="396.0" font-family="Arial" font-size="13" text-anchor="middle">0.87</text>
<rect x="132" y="424" width="64" height="64" fill="rgb(202,202,255)" stroke="#fff"/>
<text x="164.0" y="460.0" font-family="Arial" font-size="13" text-anchor="middle">0.41</text>
<rect x="196" y="424" width="64" height="64" fill="rgb(209,209,255)" stroke="#fff"/>
<text x="228.0" y="460.0" font-family="Arial" font-size="13" text-anchor="middle">0.35</text>
<rect x="260" y="424" width="64" height="64" fill="rgb(213,213,255)" stroke="#fff"/>
<text x="292.0" y="460.0" font-family="Arial" font-size="13" text-anchor="middle">0.32</text>
<rect x="324" y="424" width="64" height="64" fill="rgb(157,157,255)" stroke="#fff"/>
<text x="356.0" y="460.0" font-family="Arial" font-size="13" text-anchor="middle">0.75</text>
<rect x="388" y="424" width="64" height="64" fill="rgb(142,142,255)" stroke="#fff"/>
<text x="420.0" y="460.0" font-family="Arial" font-size="13" text-anchor="middle">0.87</text>
<rect x="452" y="424" width="64" height="64" fill="#e8e8e8" stroke="#fff"/>
<text x="484.0" y="460.0" font-family="Arial" font-size="13" text-anchor="middle">1.00</text>
</svg>